<?xml version="1.0" encoding="UTF-8"?>
<svg id="Layer_1" xmlns="http://www.w3.org/2000/svg" version="1.1" viewBox="0 0 1000 1000">
  <!-- Generator: Adobe Illustrator 30.0.0, SVG Export Plug-In . SVG Version: 2.1.1 Build 123)  -->
  <defs>
    <style>
      .st0 {
        fill: #ffc001;
      }
    </style>
  </defs>
  <rect class="st0" width="1000" height="1000"/>
  <g>
    <g>
      <path d="M618.79,636.22l-2.4-3.29-11.83,2.4-.93,3.96-7.73,1.57,6.93-24.77,8.05-1.63,15.99,20.13-8.08,1.64ZM605.81,629.97l7.34-1.49-5.31-7.27-2.03,8.76Z"/>
      <path d="M658.88,628.1l-8.11,1.64-6.59-6.18-6.45,1.31,1.46,7.22-7.12,1.44-4.55-22.45,20.01-4.05c4.1-.83,6.19.55,7.02,4.65l.62,3.05c.76,3.75-.34,5.74-3.57,6.77l7.28,6.6ZM635.68,614.74l1.05,5.19,9.88-2c1.32-.27,1.65-.77,1.38-2.08l-.35-1.73c-.26-1.31-.77-1.65-2.08-1.38l-9.88,2Z"/>
      <path d="M670.64,620.01l16.61-3.36,1.11,5.48-23.73,4.81-4.55-22.45,23.41-4.74,1.11,5.48-16.29,3.3.64,3.17,15.01-3.04.95,4.68-15.01,3.04.74,3.62Z"/>
      <path d="M710.18,594.34l6.86-1.39,4.55,22.45-5.77,1.17-17.26-10.73,2.77,13.66-6.86,1.39-4.55-22.45,6.06-1.23,16.91,10.49-2.71-13.37Z"/>
      <path d="M749.75,609.69l-2.4-3.29-11.83,2.4-.93,3.96-7.73,1.57,6.93-24.77,8.05-1.63,15.99,20.13-8.08,1.64ZM736.77,603.44l7.34-1.49-5.31-7.27-2.03,8.76Z"/>
    </g>
    <polygon points="683.57 444.25 679.2 471.24 358.92 535.03 379.26 406.77 322.81 542.23 292.97 548.17 359.82 396.58 409.55 386.68 390.8 502.57 683.57 444.25"/>
    <polygon points="728.43 508.66 755.8 503.21 758.34 480.95 747.32 468.82 709.27 476.4 696.51 493.27 691.08 526.8 702.7 537.02 723.41 539.64 720.21 559.42 712.75 560.91 715.64 543.01 687.55 548.6 683.32 574.8 700.88 588.96 732 582.76 749.08 562.1 753.48 524.96 745.28 515.17 720.56 512.62 722.78 498.89 730.25 497.41 728.43 508.66"/>
    <polygon points="606.29 382.35 634.18 376.79 637.89 353.88 625.79 343.61 585.02 351.73 574.9 365.49 569.19 400.77 578.19 408.69 601.32 413.07 598.8 428.61 591.56 430.06 593.65 417.53 565.57 423.12 561.41 448.88 575.31 460.09 611.32 452.92 624.71 435.32 630.76 397.93 624.21 390.1 598.76 385.98 601.59 368.48 608.76 367.05 606.29 382.35"/>
    <polygon points="534.24 396.7 536.64 381.42 529.54 382.83 526.78 400.46 552.07 404.47 558.7 412.39 552.58 450.18 539.06 467.31 503.15 474.47 489.34 463.34 493.53 437.47 521.89 431.82 519.93 444.32 527.03 442.91 529.44 427.45 506.28 423.28 497.13 415.22 502.83 379.95 514.37 365.8 554.89 357.73 565.83 368.34 562.14 391.15 534.24 396.7"/>
    <polygon points="628.61 449.48 633.09 421.78 648.14 418.79 657.43 361.34 642.38 364.34 646.4 339.5 702.32 328.36 698.3 353.2 685.56 355.74 676.27 413.18 689.01 410.65 684.52 438.34 628.61 449.48"/>
    <polygon points="711.44 326.54 688.33 469.42 753.22 456.49 757.3 429.56 721.14 436.77 726.44 403.19 756.99 397.1 761.4 369.86 730.69 375.98 735.35 345.82 772.32 338.46 776.34 313.62 711.44 326.54"/>
    <path d="M529.21,630.75l-10.62-50.54,12.4-14.16,6.65-41.13-12.89-11.76-55.6,11.08-23.79,147.01,30.33-6.2,9.69-70.92,7.86-1.6,13.65,65.93,79.6-16.18,5.82-24.1-63.1,12.57ZM503.5,568.79l-14.62,2.98,3.1-19.87-6.92-3.56,22.48-4.5-4.04,24.95Z"/>
    <polygon points="548.92 533.39 553.13 507.37 610.1 496.02 605.89 522.05 592.9 524.63 583.22 586.57 595.86 584.06 591.24 610.66 534.65 621.94 538.89 595.4 555.19 592.16 564.87 530.22 548.92 533.39"/>
    <polygon points="687.11 495.14 687.11 495.14 683.47 517.61 655.6 523.17 657.42 511.91 641 515.18 630.97 577.19 647.39 573.92 650.28 556.03 638.53 558.3 645.92 538.11 681.3 531.07 673.83 577.23 657.36 597.62 618.95 605.28 601.46 591.55 614.71 509.64 627.59 492.67 673.92 483.44 687.11 495.14"/>
    <polygon points="493.62 369.93 477.7 468.29 466.07 481.85 420.24 490.98 405.6 479.48 420.98 384.4 449 378.82 435.69 461.1 452.28 457.8 465.6 375.51 493.62 369.93"/>
    <g>
      <path d="M454.92,568.09c-1.6,2.54-4.89,4.06-9.76,4.54-.75.08-1.6.16-2.55.23-9.93.82-30.29,2.5-35.21,20.29-.3,1.04-.48,2.1-.67,3.16l-.05.26c-.87,4.29-1.96,8.48-3.27,12.43-5.88,17.89-14.95,28.86-19.12,33.23,11.56-35.97-18.11-60.54-40.64-59.23-11.81.68-29.06,6.29-47.79,27.68,1.77-1.28,3.53-2.49,5.26-3.59l.39-.26c1.2-.76,2.35-1.48,3.5-2.16l.16-.08c.06-.03.11-.06.17-.09,5.65-3.17,15.48-7.75,26.51-8.67.89-.08,1.77-.12,2.68-.14h.17c6.99,0,25.13,2.13,33.82,23.04.02.03.02.05.03.08,1.07,2.75,1.87,5.51,2.47,8.12l.06.34c.64,4.36.65,8.96.05,13.68-1.07,8.28-4.08,16.2-8.71,23.03,15.09,5.85,40.9,4.84,61.42-8.42l2.97-1.91-3.98,23.7-.73.34c-55.47,20.85-83.38-1.26-91.3-9.41,10.25-3.19,17.69-12.76,17.69-24.05s-7.65-21.14-18.14-24.18c-.25-.08-.5-.16-.75-.22-3.58-1.03-7.62-1.21-12-.25-18.59,4.12-51.51,39.98-52.76,41.34,0,0-.26.28-.7.73-6.92,7.27-15.42,12.96-24.96,16.09-11.7,3.83-22.33,3.16-31.33-2.08-7.02-4.09-11.47-9.71-13.26-16.68-3.63-14.17,5.03-29.09,6.02-30.74l2.74-4.61v.06l1.8-2.97-1.59,8.17v.11c.05,1.28-.02,2.52-.08,3.72-.08,1.51-.16,2.93-.02,4.34.73,7.93,4.05,21.45,17.94,22.87,8.49.86,23.57-5.37,46.92-39.98,8.63-12.79,18.06-25.56,29.33-35.83l.02-.02c.61-.54,1.2-1.09,1.82-1.6.22-.2.47-.4.73-.62,6.58-5.37,25.44-18.7,52.48-20.21.17-.02.34-.02.51-.03.11,0,.23-.02.34-.02,7.89-.39,15.53-.16,22.17.05,5.63.17,10.5.33,14.55.09,5.24-.28,9.71-1.82,11.65-4.03.79-.92,1.15-1.9,1.06-3.02-.72-9.1-7.64-13.55-11.72-15.39-.22-.09-.37-.17-.42-.2l-2.41-1.42,2.44-1.32c.08-.03.84-.42,2.16-.82,4.28-1.34,15.68-3.13,28.88,8.88,2.07,1.88,3.98,3.5,5.87,4.96,1.23.96,2.47,1.88,3.73,2.75,13.43,9.3,22.39,9.35,22.59,9.35l1.12-.02.44,1.17c.03.12.93,2.75-.78,5.45Z"/>
      <polyline points="364.01 661.45 372.65 659.26 374.85 653.54 369.1 645.53"/>
      <polyline points="369.8 644.21 377.43 639.61 377.88 633.5 370.06 627.49"/>
      <polyline points="369.8 625.16 374.79 617.77 372.63 612.05 363 609.89"/>
      <polyline points="361.89 608.49 362.31 599.59 357.49 595.82 348.14 598.97"/>
      <polyline points="346.72 598.05 342.04 590.47 335.93 590.08 330 597.97"/>
      <polyline points="329.28 596.95 322.19 591.56 316.35 593.39 313.65 602.88"/>
      <path d="M321.91,626.93c-4.82,0-9.47,2.04-12.74,5.61l.06.03c2.52-2.05,5.7-3.17,8.96-3.17,7.84,0,15.22,7.49,15.22,15.33s-7.03,15.66-14.88,15.66c-1.5,0-2.97-.23-4.36-.69h.06c2.38,1.19,4.96,1.79,7.67,1.79,9.52,0,17.27-7.75,17.27-17.27s-7.75-17.28-17.27-17.28Z"/>
    </g>
  </g>
</svg>